HIERARCHY
ROOT Hips
{
	OFFSET -3.958830 18.904000 13.208200
	CHANNELS 6 Xposition Yposition Zposition Zrotation Yrotation Xrotation 
	JOINT LHipJoint
	{
		OFFSET 0.000000 0.000000 0.000000
		CHANNELS 3 Zrotation Yrotation Xrotation
		JOINT LeftUpLeg
		{
			OFFSET 1.800000 -1.400000 0.085000
			CHANNELS 3 Zrotation Yrotation Xrotation
			JOINT LeftLeg
			{
				OFFSET 2.215000 -6.000000 0.000000
				CHANNELS 3 Zrotation Yrotation Xrotation
				JOINT LeftFoot
				{
					OFFSET 2.500000 -6.900000 0.000000
					CHANNELS 3 Zrotation Yrotation Xrotation
					JOINT LeftToeBase
					{
						OFFSET 0.200000 -0.500000 1.950000
						CHANNELS 3 Zrotation Yrotation Xrotation
						End Site
						{
							OFFSET 0.000000 0.000000 0.000000
						}
					}
				}
			}
		}
	}
	JOINT RHipJoint
	{
		OFFSET 0.000000 0.000000 0.000000
		CHANNELS 3 Zrotation Yrotation Xrotation
		JOINT RightUpLeg
		{
			OFFSET -1.800000 -1.400000 0.085000
			CHANNELS 3 Zrotation Yrotation Xrotation
			JOINT RightLeg
			{
				OFFSET -2.215000 -6.000000 0.000000
				CHANNELS 3 Zrotation Yrotation Xrotation
				JOINT RightFoot
				{
					OFFSET -2.500000 -6.900000 0.000000
					CHANNELS 3 Zrotation Yrotation Xrotation
					JOINT RightToeBase
					{
						OFFSET -0.200000 -0.500000 1.950000
						CHANNELS 3 Zrotation Yrotation Xrotation
						End Site
						{
							OFFSET 0.000000 0.000000 0.000000
						}
					}
				}
			}
		}
	}
	JOINT LowerBack
	{
		OFFSET 0.000000 0.000000 0.000000
		CHANNELS 3 Zrotation Yrotation Xrotation
		JOINT Spine
		{
			OFFSET -0.087000 1.940000 -0.288900
			CHANNELS 3 Zrotation Yrotation Xrotation
			JOINT Spine1
			{
				OFFSET 0.000000 1.950000 0.060000
				CHANNELS 3 Zrotation Yrotation Xrotation
				JOINT Neck
				{
					OFFSET 0.000000 0.000000 0.000000
					CHANNELS 3 Zrotation Yrotation Xrotation
					JOINT Neck1
					{
						OFFSET 0.000000 1.600000 0.340000
						CHANNELS 3 Zrotation Yrotation Xrotation
						JOINT Head
						{
							OFFSET 0.000000 1.667000 -0.240000
							CHANNELS 3 Zrotation Yrotation Xrotation
							End Site
							{
								OFFSET 0.000000 0.000000 0.000000
							}
						}
					}
				}
				JOINT LeftShoulder
				{
					OFFSET 0.000000 0.000000 0.000000
					CHANNELS 3 Zrotation Yrotation Xrotation
					JOINT LeftArm
					{
						OFFSET 2.700000 1.550000 -0.730000
						CHANNELS 3 Zrotation Yrotation Xrotation
						JOINT LeftForeArm
						{
							OFFSET 5.450000 0.000000 0.000000
							CHANNELS 3 Zrotation Yrotation Xrotation
							JOINT LeftHand
							{
								OFFSET 3.450000 0.000000 0.000000
								CHANNELS 3 Zrotation Yrotation Xrotation
								JOINT LeftHandIndex1
								{
									OFFSET 0.750000 0.000000 0.000000
									CHANNELS 3 Zrotation Yrotation Xrotation
									End Site
									{
										OFFSET 0.000000 0.000000 0.000000
									}
								}
							}
						}
					}
				}
				JOINT RightShoulder
				{
					OFFSET 0.000000 0.000000 0.000000
					CHANNELS 3 Zrotation Yrotation Xrotation
					JOINT RightArm
					{
						OFFSET -2.700000 1.550000 -0.730000
						CHANNELS 3 Zrotation Yrotation Xrotation
						JOINT RightForeArm
						{
							OFFSET -5.450000 0.000000 0.000000
							CHANNELS 3 Zrotation Yrotation Xrotation
							JOINT RightHand
							{
								OFFSET -3.450000 0.000000 0.000000
								CHANNELS 3 Zrotation Yrotation Xrotation
								JOINT RightHandIndex1
								{
									OFFSET -0.750000 0.000000 0.000000
									CHANNELS 3 Zrotation Yrotation Xrotation
									End Site
									{
										OFFSET 0.000000 0.000000 0.000000
									}
								}
							}
						}
					}
				}
			}
		}
	}
}
MOTION
Frames: 8
Frame Time: 0.016667
-1.201180 16.308650 -1.126010 -8.533310 -18.182568 0.121473 -16.324366 10.196962 7.546038 41.825185 2.418555 -42.366601 -39.657892 31.176985 38.543143 1.750234 13.043531 0.189029 0.093700 -0.011040 -0.094170 18.046823 -7.154865 2.498062 -21.380867 7.703891 -36.140933 6.937677 -12.877712 51.783470 -1.073443 -7.997167 1.578374 -0.224400 0.206480 0.190220 -2.065579 -4.183395 -10.094923 -9.904676 2.917884 46.445080 5.718810 3.319702 -12.634688 2.196789 -9.146638 -9.325323 -19.131025 12.689465 30.890551 -0.257860 6.146870 -19.201590 -19.576674 4.238949 2.822707 -43.752618 15.795395 -10.518737 -80.411953 -39.747220 25.156041 -3.455068 3.492618 0.542710 -0.122590 0.165800 0.171380 16.904374 6.403892 4.496985 29.483081 -11.789227 -17.842192 -12.957003 69.051420 -7.071906 1.903356 -1.274867 -0.019130 0.233350 0.145110 0.034970 
-1.080670 16.530000 -1.041020 -9.180376 -19.002472 0.673913 -16.223268 10.614149 7.316856 38.783975 1.536272 -41.443686 -36.254265 29.004004 38.342536 1.653484 12.706271 0.283044 0.080120 -0.013240 -0.142700 18.015941 -7.682363 2.236902 -19.448933 6.962576 -33.058599 6.751569 -11.001294 45.793267 -0.801863 -6.850102 1.974579 -0.226930 0.272190 0.197020 -2.082816 -4.024706 -9.815508 -8.631879 2.267766 42.202102 4.789560 3.241745 -12.004728 2.176332 -9.056533 -9.131257 -18.855504 12.804610 30.862306 0.785410 6.218770 -15.962120 -20.165388 4.803879 2.427318 -43.607187 15.033883 -10.175441 -76.476037 -39.319501 23.261569 -3.491489 3.508487 0.480860 -0.070050 0.126110 0.211120 17.464004 5.692912 4.484238 28.784599 -11.219598 -16.408266 -2.597842 68.692737 -1.514767 1.983548 -1.439013 -0.011340 0.227770 0.136500 0.071100 
-0.966100 16.774200 -0.960140 -9.650827 -19.939940 0.873832 -16.074938 11.071799 6.941903 35.163617 0.591849 -40.060911 -31.953807 26.404211 38.206857 1.459228 12.194798 0.407461 0.060160 -0.030600 -0.188920 18.005165 -8.260371 2.065657 -17.382094 6.265618 -30.049918 6.412019 -9.430123 40.667358 -0.585551 -5.885087 2.321713 -0.218070 0.325520 0.179480 -2.173335 -3.762673 -9.505668 -7.378415 1.773341 38.346964 3.646018 3.062935 -11.038000 1.917090 -9.204874 -9.069705 -19.196516 12.979098 31.049495 2.151240 5.796190 -13.503760 -19.718550 5.471865 2.231035 -44.268915 14.154083 -9.891489 -73.519040 -39.148761 22.014179 -3.515709 3.499075 0.450390 -0.035380 0.079840 0.230950 17.382818 5.011968 4.367723 29.698795 -9.780871 -15.445133 4.442553 67.199794 2.248465 2.020796 -1.499563 -0.034860 0.241880 0.145360 0.085030 
-0.843410 17.011340 -0.881690 -9.770647 -20.830884 1.209187 -15.906771 11.447649 6.466811 30.909909 -0.387290 -39.354545 -26.955269 23.848195 38.743430 1.222151 11.597246 0.561213 0.043170 -0.059620 -0.219100 18.018787 -8.789669 2.057239 -15.817876 5.678540 -27.999265 6.541036 -8.614253 37.028795 -0.448967 -5.322301 2.525132 -0.203210 0.384750 0.178470 -2.325194 -3.360330 -9.212217 -6.169117 1.533079 33.895917 2.137023 2.780827 -9.369000 1.583093 -8.986592 -8.881781 -18.568330 12.886829 31.175716 3.109110 5.488650 -10.947490 -18.768563 5.915525 2.075813 -44.915930 12.807960 -9.436794 -70.885448 -38.627969 20.713605 -3.563634 3.498905 0.421100 0.014930 0.024840 0.239840 16.836416 4.206926 4.021801 31.605125 -7.435317 -14.461738 9.264518 63.905605 4.564634 2.033045 -1.516842 -0.065780 0.249490 0.165630 0.084370 
-0.715500 17.259720 -0.816460 -10.406282 -21.719959 0.492306 -15.754347 11.936057 5.915183 27.086075 -0.977290 -37.742995 -21.868764 21.142274 39.207767 0.935128 10.889925 0.736208 0.040270 -0.114420 -0.181290 18.016339 -9.267594 2.065305 -13.625312 5.385890 -24.743517 6.992503 -8.406014 35.383326 -0.420046 -5.137037 2.585555 -0.201810 0.388660 0.185880 -2.418314 -3.191497 -8.930227 -4.654611 1.452418 31.379172 0.958222 2.933346 -7.547308 1.572822 -9.139416 -8.890547 -19.095785 12.544838 32.166533 2.879490 4.977750 -10.401830 -18.729047 5.709889 1.917265 -45.895992 11.585987 -9.486833 -68.412442 -38.702987 19.615429 -3.597917 3.458268 0.451540 0.024210 0.001310 0.206810 16.548879 4.515352 4.039297 32.608027 -5.425661 -13.829982 13.057343 60.929752 6.014065 2.045040 -1.486835 -0.102570 0.254430 0.196660 0.040940 
-0.596100 17.493530 -0.760160 -11.085203 -22.577571 -0.348511 -15.569556 12.256904 5.375608 23.577086 -1.271858 -36.411571 -17.295078 18.925011 40.011401 0.726524 10.209795 0.945875 0.059650 -0.090300 -0.186760 18.080711 -9.680688 2.193920 -11.417241 5.460145 -22.202259 7.523848 -8.853078 36.652731 -0.506443 -5.458202 2.501365 -0.162400 0.415590 0.152820 -2.688876 -2.812638 -8.694988 -2.432825 1.135623 29.409291 -0.931154 2.895396 -5.968650 1.244282 -9.678936 -9.052592 -20.429752 13.150038 32.523998 4.315920 4.332710 -10.173020 -18.130635 5.448527 1.961737 -46.364162 10.456370 -9.399717 -67.005835 -38.767027 19.013476 -3.591741 3.419429 0.463210 0.021900 -0.014880 0.226440 16.309845 4.895544 4.072444 33.879360 -3.683593 -13.197446 17.047952 58.646165 7.365346 2.059040 -1.464608 -0.136810 0.308250 0.194500 0.042030 
-0.480820 17.704670 -0.719960 -11.636601 -22.728469 -1.009908 -15.429328 12.335009 5.026138 20.739275 -1.716356 -36.239173 -14.106467 17.437615 41.165147 0.568482 9.845943 1.071166 0.039550 -0.122960 -0.214100 18.163668 -9.917144 2.359778 -9.486663 5.710051 -20.082669 8.903107 -10.114113 39.229765 -0.656325 -6.139939 2.291195 -0.144020 0.479140 0.144780 -2.981342 -2.407528 -8.569983 -0.223854 0.696214 27.588828 -2.984315 2.693183 -4.299814 1.042136 -9.859890 -9.048679 -20.876202 13.405534 32.960962 5.138310 3.716350 -9.589450 -17.671903 5.033533 1.929883 -46.372674 9.126964 -9.032458 -66.830786 -39.328749 19.288978 -3.644279 3.375921 0.474000 0.054690 -0.052080 0.227170 15.913559 5.032000 3.990813 35.020905 -1.785646 -12.328190 20.709995 56.060950 8.447753 2.051903 -1.423282 -0.186800 0.367020 0.238300 0.035640 
-0.365760 17.909670 -0.701820 -11.980364 -23.168076 -1.924538 -15.352034 12.391159 4.755602 18.139746 -2.097075 -36.036222 -11.823883 16.484618 42.522890 0.468274 9.660491 1.133752 0.030130 -0.143390 -0.214490 18.210700 -10.034032 2.515305 -7.473727 6.031084 -17.751178 10.263688 -11.417411 41.895551 -0.838319 -6.829400 2.077855 -0.126620 0.505960 0.129960 -3.142441 -2.182239 -8.490140 0.843003 0.971293 26.777775 -4.114920 3.152366 -3.117330 0.921706 -9.992991 -8.890302 -21.365964 13.359424 33.622278 5.737350 3.048740 -10.137190 -17.983130 4.843016 1.606579 -46.411818 7.468376 -8.500881 -67.089247 -40.869171 20.527486 -3.678991 3.328685 0.500070 0.061250 -0.068990 0.211600 16.190185 5.182467 4.010460 35.180617 -0.991118 -11.855533 23.467600 55.476062 9.458253 2.043227 -1.390719 -0.228570 0.418320 0.273200 0.019010 
